<?xml version="1.0" standalone="no"?>
<!DOCTYPE svg PUBLIC "-//W3C//DTD SVG 20010904//EN"
 "http://www.w3.org/TR/2001/REC-SVG-20010904/DTD/svg10.dtd">
<svg version="1.0" xmlns="http://www.w3.org/2000/svg"
 width="500.000000pt" height="500.000000pt" viewBox="0 0 500.000000 500.000000"
 preserveAspectRatio="xMidYMid meet">

<g transform="translate(0.000000,500.000000) scale(0.100000,-0.100000)"
fill="#000000" stroke="none">
<path d="M2934 3888 c-13 -21 -18 -552 -5 -576 16 -31 55 -28 100 7 72 56 151
103 164 98 8 -3 52 -33 99 -66 47 -34 94 -61 105 -61 43 0 46 16 45 300 0 149
-4 279 -7 290 -6 19 -15 20 -250 20 -175 0 -246 -3 -251 -12z"/>
<path d="M383 3090 c4 -33 21 -97 38 -142 29 -75 41 -92 118 -169 64 -63 103
-93 155 -117 70 -33 188 -75 264 -93 l42 -10 0 -553 c0 -549 0 -553 21 -572
20 -18 47 -19 488 -24 455 -5 467 -6 522 -28 80 -32 154 -88 229 -173 168
-191 191 -209 232 -177 8 7 53 56 99 108 148 166 183 196 281 238 l63 27 475
6 c261 3 476 6 477 7 26 23 28 70 33 597 l5 549 40 9 c84 18 173 50 254 90
180 89 310 275 311 445 l0 42 -122 0 c-68 0 -128 -4 -134 -8 -7 -4 -17 -27
-24 -52 -32 -119 -118 -204 -255 -255 -45 -17 -99 -19 -570 -25 -291 -4 -535
-12 -555 -17 -115 -33 -232 -96 -325 -174 -34 -30 -66 -49 -81 -49 -31 0 -73
21 -99 50 -26 29 -104 81 -180 119 -125 63 -130 64 -695 71 -376 5 -526 10
-555 19 -135 44 -227 127 -266 242 l-24 74 -134 3 -134 3 6 -61z m1589 -561
c29 -6 83 -27 120 -46 67 -35 110 -75 266 -251 78 -87 101 -98 138 -64 11 9
68 72 127 139 128 144 203 197 317 222 25 6 184 11 356 11 299 0 311 -1 332
-20 22 -21 22 -23 22 -409 0 -358 -1 -390 -18 -409 -17 -20 -29 -20 -372 -24
-352 -4 -356 -5 -431 -31 -103 -35 -179 -77 -268 -148 -95 -76 -118 -77 -193
-13 -76 65 -176 122 -276 157 l-87 31 -350 4 c-300 3 -352 6 -367 19 -17 15
-18 48 -18 411 0 354 2 397 17 414 15 17 38 18 324 18 187 0 329 -4 361 -11z"/>
<path d="M1656 2366 c-52 -20 -84 -44 -123 -94 -88 -115 -56 -275 73 -365 50
-35 139 -46 209 -27 59 17 137 86 160 142 21 53 22 151 2 199 -21 50 -73 106
-121 131 -52 27 -148 33 -200 14z"/>
<path d="M3120 2374 c-123 -46 -189 -130 -190 -243 0 -82 18 -128 75 -186 40
-42 61 -54 104 -65 164 -39 311 57 328 215 11 102 -46 211 -132 253 -47 24
-152 38 -185 26z"/>
</g>
</svg>
